<mxfile host="app.diagrams.net" modified="2023-10-22T15:17:37.830Z" agent="Mozilla/5.0 (Macintosh; Intel Mac OS X 10_15_7) AppleWebKit/537.36 (KHTML, like Gecko) Chrome/117.0.0.0 Safari/537.36" etag="ZRtaqm571SmHtkvEIZyc" version="21.5.2" type="github">
  <diagram name="Page-1" id="9361dd3d-8414-5efd-6122-117bd74ce7a7">
    <mxGraphModel dx="2442" dy="712" grid="1" gridSize="10" guides="1" tooltips="1" connect="1" arrows="1" fold="1" page="0" pageScale="1.5" pageWidth="826" pageHeight="1169" background="none" math="0" shadow="0">
      <root>
        <mxCell id="0" />
        <mxCell id="1" parent="0" />
        <mxCell id="5K_5IWAIzV8KHntNPYIy-89" value="Portal Server" style="shadow=1;fillColor=#A2C4C9;strokeColor=none" parent="1" vertex="1">
          <mxGeometry x="-810" y="70" width="105" height="50" as="geometry" />
        </mxCell>
        <mxCell id="a7p3JFXJAgLpCiOjsdGe-2" style="edgeStyle=orthogonalEdgeStyle;rounded=0;orthogonalLoop=1;jettySize=auto;html=1;exitX=1;exitY=0.5;exitDx=0;exitDy=0;entryX=0;entryY=0.5;entryDx=0;entryDy=0;" edge="1" parent="1" source="5K_5IWAIzV8KHntNPYIy-90" target="a7p3JFXJAgLpCiOjsdGe-1">
          <mxGeometry relative="1" as="geometry" />
        </mxCell>
        <mxCell id="5K_5IWAIzV8KHntNPYIy-90" value="APIServer" style="shadow=1;fillColor=#A2C4C9;strokeColor=none" parent="1" vertex="1">
          <mxGeometry x="-600" y="70" width="105" height="50" as="geometry" />
        </mxCell>
        <mxCell id="5K_5IWAIzV8KHntNPYIy-95" value="" style="fillColor=#CC4125;strokeColor=#660000" parent="1" vertex="1">
          <mxGeometry x="-762.5" y="155" width="10" height="245" as="geometry" />
        </mxCell>
        <mxCell id="5K_5IWAIzV8KHntNPYIy-96" value="" style="edgeStyle=none;endArrow=none;dashed=1;exitX=0.5;exitY=1;exitDx=0;exitDy=0;" parent="1" source="5K_5IWAIzV8KHntNPYIy-89" target="5K_5IWAIzV8KHntNPYIy-95" edge="1">
          <mxGeometry x="-728.9288194444441" y="227.6171450617284" width="100" height="100" as="geometry">
            <mxPoint x="-757.5" y="120" as="sourcePoint" />
            <mxPoint x="-758" y="352.0866666666666" as="targetPoint" />
          </mxGeometry>
        </mxCell>
        <mxCell id="5K_5IWAIzV8KHntNPYIy-98" value="" style="fillColor=#CC4125;strokeColor=#660000" parent="1" vertex="1">
          <mxGeometry x="-552.5" y="155" width="10" height="45" as="geometry" />
        </mxCell>
        <mxCell id="5K_5IWAIzV8KHntNPYIy-99" value="" style="edgeStyle=none;endArrow=none;dashed=1" parent="1" source="5K_5IWAIzV8KHntNPYIy-90" target="5K_5IWAIzV8KHntNPYIy-98" edge="1">
          <mxGeometry x="-518.9288194444441" y="197.6171450617284" width="100" height="100" as="geometry">
            <mxPoint x="-547.5550450635587" y="120" as="sourcePoint" />
            <mxPoint x="-548" y="322.0866666666667" as="targetPoint" />
          </mxGeometry>
        </mxCell>
        <mxCell id="5K_5IWAIzV8KHntNPYIy-102" value="Pyxis Controller" style="shadow=1;fillColor=#A2C4C9;strokeColor=none" parent="1" vertex="1">
          <mxGeometry x="-310" y="70" width="105" height="50" as="geometry" />
        </mxCell>
        <mxCell id="5K_5IWAIzV8KHntNPYIy-113" style="edgeStyle=orthogonalEdgeStyle;rounded=0;orthogonalLoop=1;jettySize=auto;html=1;exitX=0;exitY=0.75;exitDx=0;exitDy=0;entryX=1;entryY=0.75;entryDx=0;entryDy=0;endArrow=classic;endFill=1;" parent="1" source="5K_5IWAIzV8KHntNPYIy-104" target="5K_5IWAIzV8KHntNPYIy-98" edge="1">
          <mxGeometry relative="1" as="geometry" />
        </mxCell>
        <mxCell id="5K_5IWAIzV8KHntNPYIy-104" value="" style="fillColor=#CC4125;strokeColor=#660000" parent="1" vertex="1">
          <mxGeometry x="-262.5" y="155" width="10" height="45" as="geometry" />
        </mxCell>
        <mxCell id="5K_5IWAIzV8KHntNPYIy-105" value="" style="edgeStyle=none;endArrow=none;dashed=1" parent="1" source="5K_5IWAIzV8KHntNPYIy-102" target="5K_5IWAIzV8KHntNPYIy-104" edge="1">
          <mxGeometry x="-228.92881944444412" y="197.6171450617284" width="100" height="100" as="geometry">
            <mxPoint x="-257.55504506355874" y="120" as="sourcePoint" />
            <mxPoint x="-258" y="322.0866666666667" as="targetPoint" />
          </mxGeometry>
        </mxCell>
        <mxCell id="5K_5IWAIzV8KHntNPYIy-108" value="" style="endArrow=classic;html=1;rounded=0;exitX=0.85;exitY=0.085;exitDx=0;exitDy=0;exitPerimeter=0;entryX=-0.15;entryY=0.085;entryDx=0;entryDy=0;entryPerimeter=0;" parent="1" edge="1">
          <mxGeometry width="50" height="50" relative="1" as="geometry">
            <mxPoint x="-753" y="166.04999999999995" as="sourcePoint" />
            <mxPoint x="-553" y="166.04999999999995" as="targetPoint" />
          </mxGeometry>
        </mxCell>
        <mxCell id="5K_5IWAIzV8KHntNPYIy-111" value="" style="endArrow=classic;html=1;rounded=0;exitX=0.85;exitY=0.085;exitDx=0;exitDy=0;exitPerimeter=0;entryX=0;entryY=0.25;entryDx=0;entryDy=0;dashed=1;" parent="1" target="5K_5IWAIzV8KHntNPYIy-104" edge="1">
          <mxGeometry width="50" height="50" relative="1" as="geometry">
            <mxPoint x="-542.5" y="165.99999999999994" as="sourcePoint" />
            <mxPoint x="-342.5" y="165.99999999999994" as="targetPoint" />
          </mxGeometry>
        </mxCell>
        <mxCell id="5K_5IWAIzV8KHntNPYIy-112" value="watch -&amp;nbsp;completed" style="text;html=1;align=center;verticalAlign=middle;resizable=0;points=[];autosize=1;strokeColor=none;fillColor=none;" parent="1" vertex="1">
          <mxGeometry x="-715" y="237.09" width="120" height="30" as="geometry" />
        </mxCell>
        <mxCell id="5K_5IWAIzV8KHntNPYIy-116" value="" style="edgeStyle=none;endArrow=none;dashed=1;startArrow=none;" parent="1" source="a7p3JFXJAgLpCiOjsdGe-15" edge="1">
          <mxGeometry x="-518.9288194444441" y="197.6171450617284" width="100" height="100" as="geometry">
            <mxPoint x="-547.5616438356165" y="200" as="sourcePoint" />
            <mxPoint x="-547" y="400" as="targetPoint" />
          </mxGeometry>
        </mxCell>
        <mxCell id="5K_5IWAIzV8KHntNPYIy-130" style="edgeStyle=orthogonalEdgeStyle;rounded=0;orthogonalLoop=1;jettySize=auto;html=1;exitX=1;exitY=0.25;exitDx=0;exitDy=0;entryX=0;entryY=0.25;entryDx=0;entryDy=0;endArrow=classic;endFill=1;" parent="1" source="5K_5IWAIzV8KHntNPYIy-104" target="5K_5IWAIzV8KHntNPYIy-128" edge="1">
          <mxGeometry relative="1" as="geometry" />
        </mxCell>
        <mxCell id="5K_5IWAIzV8KHntNPYIy-120" value="" style="edgeStyle=none;endArrow=none;dashed=1;startArrow=none;" parent="1" source="a7p3JFXJAgLpCiOjsdGe-39" edge="1">
          <mxGeometry x="-228.92881944444412" y="197.6171450617284" width="100" height="100" as="geometry">
            <mxPoint x="-257.56164383561645" y="200" as="sourcePoint" />
            <mxPoint x="-257" y="400" as="targetPoint" />
          </mxGeometry>
        </mxCell>
        <mxCell id="5K_5IWAIzV8KHntNPYIy-121" value="create" style="text;html=1;align=center;verticalAlign=middle;resizable=0;points=[];autosize=1;strokeColor=none;fillColor=none;" parent="1" vertex="1">
          <mxGeometry x="-685" y="145" width="60" height="30" as="geometry" />
        </mxCell>
        <mxCell id="5K_5IWAIzV8KHntNPYIy-126" value="privatelink" style="shadow=1;fillColor=#A2C4C9;strokeColor=none" parent="1" vertex="1">
          <mxGeometry x="-120" y="90" width="70" height="28" as="geometry" />
        </mxCell>
        <mxCell id="5K_5IWAIzV8KHntNPYIy-127" value="" style="edgeStyle=none;endArrow=none;dashed=1;startArrow=none;" parent="1" source="a7p3JFXJAgLpCiOjsdGe-41" edge="1">
          <mxGeometry x="-128.92881944444412" y="283.9971450617285" width="100" height="100" as="geometry">
            <mxPoint x="-85.5" y="147.32000000000005" as="sourcePoint" />
            <mxPoint x="-85" y="410" as="targetPoint" />
          </mxGeometry>
        </mxCell>
        <mxCell id="a7p3JFXJAgLpCiOjsdGe-5" style="rounded=0;orthogonalLoop=1;jettySize=auto;html=1;exitX=0;exitY=0.75;exitDx=0;exitDy=0;entryX=1;entryY=0.75;entryDx=0;entryDy=0;dashed=1;endArrow=none;endFill=0;" edge="1" parent="1" source="5K_5IWAIzV8KHntNPYIy-128" target="5K_5IWAIzV8KHntNPYIy-104">
          <mxGeometry relative="1" as="geometry" />
        </mxCell>
        <mxCell id="5K_5IWAIzV8KHntNPYIy-128" value="" style="fillColor=#CC4125;strokeColor=#660000" parent="1" vertex="1">
          <mxGeometry x="-90" y="155" width="10" height="45.61" as="geometry" />
        </mxCell>
        <mxCell id="5K_5IWAIzV8KHntNPYIy-129" value="" style="edgeStyle=none;endArrow=none;dashed=1" parent="1" source="5K_5IWAIzV8KHntNPYIy-126" target="5K_5IWAIzV8KHntNPYIy-128" edge="1">
          <mxGeometry x="-128.92881944444412" y="283.9971450617285" width="100" height="100" as="geometry">
            <mxPoint x="-157.54216867469881" y="204.30000000000004" as="sourcePoint" />
            <mxPoint x="-158" y="356.30000000000007" as="targetPoint" />
          </mxGeometry>
        </mxCell>
        <mxCell id="5K_5IWAIzV8KHntNPYIy-201" value="remote-hook" style="shadow=1;fillColor=#A2C4C9;strokeColor=none" parent="1" vertex="1">
          <mxGeometry x="-710" y="800" width="105" height="28" as="geometry" />
        </mxCell>
        <mxCell id="5K_5IWAIzV8KHntNPYIy-202" value="" style="edgeStyle=none;endArrow=none;dashed=1;exitX=0.5;exitY=1;exitDx=0;exitDy=0;startArrow=none;" parent="1" source="5K_5IWAIzV8KHntNPYIy-205" edge="1">
          <mxGeometry x="-626.4288194444441" y="435.61714506172837" width="100" height="100" as="geometry">
            <mxPoint x="-655" y="828" as="sourcePoint" />
            <mxPoint x="-655" y="1142" as="targetPoint" />
          </mxGeometry>
        </mxCell>
        <mxCell id="5K_5IWAIzV8KHntNPYIy-203" value="log-agent" style="shadow=1;fillColor=#A2C4C9;strokeColor=none" parent="1" vertex="1">
          <mxGeometry x="-397" y="800" width="105" height="28" as="geometry" />
        </mxCell>
        <mxCell id="5K_5IWAIzV8KHntNPYIy-204" value="" style="edgeStyle=none;endArrow=none;dashed=1;exitX=0.5;exitY=1;exitDx=0;exitDy=0;startArrow=none;" parent="1" edge="1">
          <mxGeometry x="-313.4288194444441" y="435.61714506172837" width="100" height="100" as="geometry">
            <mxPoint x="-342" y="828" as="sourcePoint" />
            <mxPoint x="-342" y="1142" as="targetPoint" />
          </mxGeometry>
        </mxCell>
        <mxCell id="5K_5IWAIzV8KHntNPYIy-205" value="" style="fillColor=#CC4125;strokeColor=#660000" parent="1" vertex="1">
          <mxGeometry x="-660" y="850" width="10" height="210" as="geometry" />
        </mxCell>
        <mxCell id="5K_5IWAIzV8KHntNPYIy-206" value="" style="edgeStyle=none;endArrow=none;dashed=1;exitX=0.5;exitY=1;exitDx=0;exitDy=0;startArrow=none;" parent="1" target="5K_5IWAIzV8KHntNPYIy-205" edge="1">
          <mxGeometry x="-626.4288194444441" y="435.61714506172837" width="100" height="100" as="geometry">
            <mxPoint x="-655" y="828" as="sourcePoint" />
            <mxPoint x="-655" y="1142" as="targetPoint" />
          </mxGeometry>
        </mxCell>
        <mxCell id="5K_5IWAIzV8KHntNPYIy-207" value="" style="fillColor=#CC4125;strokeColor=#660000" parent="1" vertex="1">
          <mxGeometry x="-347" y="850" width="10" height="210" as="geometry" />
        </mxCell>
        <mxCell id="5K_5IWAIzV8KHntNPYIy-209" value="" style="endArrow=classic;html=1;rounded=0;fontColor=#FF0000;strokeColor=#000000;strokeWidth=1;exitX=-0.1;exitY=0.09;exitDx=0;exitDy=0;exitPerimeter=0;entryX=1.1;entryY=0.095;entryDx=0;entryDy=0;entryPerimeter=0;" parent="1" source="5K_5IWAIzV8KHntNPYIy-207" target="5K_5IWAIzV8KHntNPYIy-205" edge="1">
          <mxGeometry width="50" height="50" relative="1" as="geometry">
            <mxPoint x="-480" y="910" as="sourcePoint" />
            <mxPoint x="-430" y="860" as="targetPoint" />
          </mxGeometry>
        </mxCell>
        <mxCell id="5K_5IWAIzV8KHntNPYIy-210" value="register" style="text;html=1;align=center;verticalAlign=middle;resizable=0;points=[];autosize=1;strokeColor=none;fillColor=none;fontColor=#FF0000;" parent="1" vertex="1">
          <mxGeometry x="-540" y="850" width="60" height="20" as="geometry" />
        </mxCell>
        <mxCell id="5K_5IWAIzV8KHntNPYIy-211" value="" style="endArrow=classic;html=1;rounded=0;fontColor=#FF0000;strokeColor=#000000;strokeWidth=1;exitX=1;exitY=0.205;exitDx=0;exitDy=0;exitPerimeter=0;entryX=0;entryY=0.367;entryDx=0;entryDy=0;entryPerimeter=0;" parent="1" source="5K_5IWAIzV8KHntNPYIy-205" target="5K_5IWAIzV8KHntNPYIy-207" edge="1">
          <mxGeometry width="50" height="50" relative="1" as="geometry">
            <mxPoint x="-480" y="950" as="sourcePoint" />
            <mxPoint x="-430" y="900" as="targetPoint" />
          </mxGeometry>
        </mxCell>
        <mxCell id="5K_5IWAIzV8KHntNPYIy-212" value="event 1" style="text;html=1;align=center;verticalAlign=middle;resizable=0;points=[];autosize=1;strokeColor=none;fillColor=none;fontColor=#FF0000;" parent="1" vertex="1">
          <mxGeometry x="-525" y="890" width="50" height="20" as="geometry" />
        </mxCell>
        <mxCell id="5K_5IWAIzV8KHntNPYIy-215" value="" style="endArrow=none;html=1;rounded=0;fontColor=#FF0000;strokeColor=#000000;strokeWidth=1;exitX=-0.1;exitY=0.09;exitDx=0;exitDy=0;exitPerimeter=0;dashed=1;endFill=0;" parent="1" edge="1">
          <mxGeometry width="50" height="50" relative="1" as="geometry">
            <mxPoint x="-347" y="940.0000000000001" as="sourcePoint" />
            <mxPoint x="-648" y="970" as="targetPoint" />
          </mxGeometry>
        </mxCell>
        <mxCell id="5K_5IWAIzV8KHntNPYIy-218" value="" style="endArrow=classic;html=1;rounded=0;fontColor=#FF0000;strokeColor=#000000;strokeWidth=1;exitX=1;exitY=0.205;exitDx=0;exitDy=0;exitPerimeter=0;entryX=0;entryY=0.367;entryDx=0;entryDy=0;entryPerimeter=0;" parent="1" edge="1">
          <mxGeometry width="50" height="50" relative="1" as="geometry">
            <mxPoint x="-650" y="980" as="sourcePoint" />
            <mxPoint x="-347" y="1014.02" as="targetPoint" />
          </mxGeometry>
        </mxCell>
        <mxCell id="5K_5IWAIzV8KHntNPYIy-219" value="event 2" style="text;html=1;align=center;verticalAlign=middle;resizable=0;points=[];autosize=1;strokeColor=none;fillColor=none;fontColor=#FF0000;" parent="1" vertex="1">
          <mxGeometry x="-525" y="975" width="50" height="20" as="geometry" />
        </mxCell>
        <mxCell id="5K_5IWAIzV8KHntNPYIy-221" value="" style="endArrow=classic;html=1;rounded=0;fontColor=#FF0000;strokeColor=#000000;strokeWidth=1;exitX=1;exitY=0.205;exitDx=0;exitDy=0;exitPerimeter=0;entryX=0;entryY=0.367;entryDx=0;entryDy=0;entryPerimeter=0;" parent="1" edge="1">
          <mxGeometry width="50" height="50" relative="1" as="geometry">
            <mxPoint x="-650" y="1020" as="sourcePoint" />
            <mxPoint x="-347" y="1054.02" as="targetPoint" />
          </mxGeometry>
        </mxCell>
        <mxCell id="5K_5IWAIzV8KHntNPYIy-222" value="event 2 timeout" style="text;html=1;align=center;verticalAlign=middle;resizable=0;points=[];autosize=1;strokeColor=none;fillColor=none;fontColor=#FF0000;" parent="1" vertex="1">
          <mxGeometry x="-542.5" y="1020" width="100" height="20" as="geometry" />
        </mxCell>
        <mxCell id="5K_5IWAIzV8KHntNPYIy-226" value="BeforeStart: func()&lt;br&gt;BeforeStartTimeout: func()&lt;br&gt;BeforeStop: func()&lt;br&gt;BeforeStopTimeout: func()" style="text;html=1;align=left;verticalAlign=middle;resizable=0;points=[];autosize=1;strokeColor=none;fillColor=none;fontColor=#FF0000;" parent="1" vertex="1">
          <mxGeometry x="-310" y="900" width="160" height="60" as="geometry" />
        </mxCell>
        <mxCell id="a7p3JFXJAgLpCiOjsdGe-1" value="ETCD" style="shadow=1;fillColor=#A2C4C9;strokeColor=none" vertex="1" parent="1">
          <mxGeometry x="-450" y="80" width="105" height="30" as="geometry" />
        </mxCell>
        <mxCell id="a7p3JFXJAgLpCiOjsdGe-4" value="call create ..." style="text;html=1;align=center;verticalAlign=middle;resizable=0;points=[];autosize=1;strokeColor=none;fillColor=none;" vertex="1" parent="1">
          <mxGeometry x="-220" y="145" width="90" height="30" as="geometry" />
        </mxCell>
        <mxCell id="a7p3JFXJAgLpCiOjsdGe-6" value="patch status (proccessing)" style="text;html=1;align=center;verticalAlign=middle;resizable=0;points=[];autosize=1;strokeColor=none;fillColor=none;" vertex="1" parent="1">
          <mxGeometry x="-482.5" y="166.8" width="160" height="30" as="geometry" />
        </mxCell>
        <mxCell id="a7p3JFXJAgLpCiOjsdGe-16" value="" style="edgeStyle=none;endArrow=none;dashed=1;startArrow=none;" edge="1" parent="1" source="5K_5IWAIzV8KHntNPYIy-98" target="a7p3JFXJAgLpCiOjsdGe-15">
          <mxGeometry x="-518.9288194444441" y="197.6171450617284" width="100" height="100" as="geometry">
            <mxPoint x="-547" y="200" as="sourcePoint" />
            <mxPoint x="-547" y="353" as="targetPoint" />
          </mxGeometry>
        </mxCell>
        <mxCell id="a7p3JFXJAgLpCiOjsdGe-15" value="" style="fillColor=#CC4125;strokeColor=#660000" vertex="1" parent="1">
          <mxGeometry x="-552.5" y="225.09000000000003" width="10" height="45" as="geometry" />
        </mxCell>
        <mxCell id="a7p3JFXJAgLpCiOjsdGe-17" style="rounded=0;orthogonalLoop=1;jettySize=auto;html=1;exitX=0;exitY=0.75;exitDx=0;exitDy=0;endArrow=classic;endFill=1;dashed=1;" edge="1" parent="1" source="a7p3JFXJAgLpCiOjsdGe-15">
          <mxGeometry relative="1" as="geometry">
            <mxPoint x="-455" y="270.09000000000003" as="sourcePoint" />
            <mxPoint x="-750" y="260" as="targetPoint" />
          </mxGeometry>
        </mxCell>
        <mxCell id="a7p3JFXJAgLpCiOjsdGe-19" value="" style="edgeStyle=none;endArrow=none;dashed=1;startArrow=none;" edge="1" parent="1" source="5K_5IWAIzV8KHntNPYIy-128" target="a7p3JFXJAgLpCiOjsdGe-18">
          <mxGeometry x="-128.92881944444412" y="283.9971450617285" width="100" height="100" as="geometry">
            <mxPoint x="-85" y="201" as="sourcePoint" />
            <mxPoint x="-85" y="300" as="targetPoint" />
          </mxGeometry>
        </mxCell>
        <mxCell id="a7p3JFXJAgLpCiOjsdGe-18" value="" style="fillColor=#CC4125;strokeColor=#660000" vertex="1" parent="1">
          <mxGeometry x="-90" y="225.09" width="10" height="45.61" as="geometry" />
        </mxCell>
        <mxCell id="a7p3JFXJAgLpCiOjsdGe-20" style="edgeStyle=orthogonalEdgeStyle;rounded=0;orthogonalLoop=1;jettySize=auto;html=1;exitX=1;exitY=0.25;exitDx=0;exitDy=0;entryX=0;entryY=0.25;entryDx=0;entryDy=0;endArrow=classic;endFill=1;" edge="1" parent="1">
          <mxGeometry relative="1" as="geometry">
            <mxPoint x="-252" y="234.59" as="sourcePoint" />
            <mxPoint x="-90" y="234.59" as="targetPoint" />
          </mxGeometry>
        </mxCell>
        <mxCell id="a7p3JFXJAgLpCiOjsdGe-22" value="" style="edgeStyle=none;endArrow=none;dashed=1;startArrow=none;" edge="1" parent="1" source="5K_5IWAIzV8KHntNPYIy-104" target="a7p3JFXJAgLpCiOjsdGe-21">
          <mxGeometry x="-228.92881944444412" y="197.6171450617284" width="100" height="100" as="geometry">
            <mxPoint x="-257" y="200" as="sourcePoint" />
            <mxPoint x="-257" y="308" as="targetPoint" />
          </mxGeometry>
        </mxCell>
        <mxCell id="a7p3JFXJAgLpCiOjsdGe-25" style="edgeStyle=orthogonalEdgeStyle;rounded=0;orthogonalLoop=1;jettySize=auto;html=1;exitX=0;exitY=0.75;exitDx=0;exitDy=0;entryX=1;entryY=0.75;entryDx=0;entryDy=0;" edge="1" parent="1" source="a7p3JFXJAgLpCiOjsdGe-21" target="a7p3JFXJAgLpCiOjsdGe-15">
          <mxGeometry relative="1" as="geometry" />
        </mxCell>
        <mxCell id="a7p3JFXJAgLpCiOjsdGe-21" value="" style="fillColor=#CC4125;strokeColor=#660000" vertex="1" parent="1">
          <mxGeometry x="-262.5" y="225.7" width="10" height="45" as="geometry" />
        </mxCell>
        <mxCell id="a7p3JFXJAgLpCiOjsdGe-23" value="poll task status ..." style="text;html=1;align=center;verticalAlign=middle;resizable=0;points=[];autosize=1;strokeColor=none;fillColor=none;" vertex="1" parent="1">
          <mxGeometry x="-235" y="212.09" width="120" height="30" as="geometry" />
        </mxCell>
        <mxCell id="a7p3JFXJAgLpCiOjsdGe-24" style="rounded=0;orthogonalLoop=1;jettySize=auto;html=1;exitX=0;exitY=0.75;exitDx=0;exitDy=0;dashed=1;endArrow=none;endFill=0;entryX=1;entryY=0.75;entryDx=0;entryDy=0;" edge="1" parent="1" source="a7p3JFXJAgLpCiOjsdGe-18" target="a7p3JFXJAgLpCiOjsdGe-21">
          <mxGeometry relative="1" as="geometry">
            <mxPoint x="-94" y="245.09" as="sourcePoint" />
            <mxPoint x="-220" y="270" as="targetPoint" />
          </mxGeometry>
        </mxCell>
        <mxCell id="a7p3JFXJAgLpCiOjsdGe-26" value="patch status (completed)" style="text;html=1;align=center;verticalAlign=middle;resizable=0;points=[];autosize=1;strokeColor=none;fillColor=none;" vertex="1" parent="1">
          <mxGeometry x="-477.5" y="237.09" width="150" height="30" as="geometry" />
        </mxCell>
        <mxCell id="a7p3JFXJAgLpCiOjsdGe-34" value="delete" style="text;html=1;align=center;verticalAlign=middle;resizable=0;points=[];autosize=1;strokeColor=none;fillColor=none;" vertex="1" parent="1">
          <mxGeometry x="-685" y="290" width="60" height="30" as="geometry" />
        </mxCell>
        <mxCell id="a7p3JFXJAgLpCiOjsdGe-35" value="" style="endArrow=classic;html=1;rounded=0;exitX=0.85;exitY=0.085;exitDx=0;exitDy=0;exitPerimeter=0;entryX=-0.15;entryY=0.085;entryDx=0;entryDy=0;entryPerimeter=0;" edge="1" parent="1">
          <mxGeometry width="50" height="50" relative="1" as="geometry">
            <mxPoint x="-753" y="311.04999999999995" as="sourcePoint" />
            <mxPoint x="-553" y="311.04999999999995" as="targetPoint" />
          </mxGeometry>
        </mxCell>
        <mxCell id="a7p3JFXJAgLpCiOjsdGe-36" value="" style="fillColor=#CC4125;strokeColor=#660000" vertex="1" parent="1">
          <mxGeometry x="-552.5" y="300" width="10" height="45" as="geometry" />
        </mxCell>
        <mxCell id="a7p3JFXJAgLpCiOjsdGe-37" style="rounded=0;orthogonalLoop=1;jettySize=auto;html=1;exitX=0;exitY=0.75;exitDx=0;exitDy=0;endArrow=classic;endFill=1;dashed=1;" edge="1" parent="1">
          <mxGeometry relative="1" as="geometry">
            <mxPoint x="-554.5" y="341.90999999999997" as="sourcePoint" />
            <mxPoint x="-752.5" y="342.90999999999997" as="targetPoint" />
          </mxGeometry>
        </mxCell>
        <mxCell id="a7p3JFXJAgLpCiOjsdGe-38" value="watch -&amp;nbsp;completed" style="text;html=1;align=center;verticalAlign=middle;resizable=0;points=[];autosize=1;strokeColor=none;fillColor=none;" vertex="1" parent="1">
          <mxGeometry x="-717.5" y="320" width="120" height="30" as="geometry" />
        </mxCell>
        <mxCell id="a7p3JFXJAgLpCiOjsdGe-40" value="" style="edgeStyle=none;endArrow=none;dashed=1;startArrow=none;" edge="1" parent="1" source="a7p3JFXJAgLpCiOjsdGe-21" target="a7p3JFXJAgLpCiOjsdGe-39">
          <mxGeometry x="-228.92881944444412" y="197.6171450617284" width="100" height="100" as="geometry">
            <mxPoint x="-257" y="271" as="sourcePoint" />
            <mxPoint x="-257" y="400" as="targetPoint" />
          </mxGeometry>
        </mxCell>
        <mxCell id="a7p3JFXJAgLpCiOjsdGe-39" value="" style="fillColor=#CC4125;strokeColor=#660000" vertex="1" parent="1">
          <mxGeometry x="-262.5" y="300" width="10" height="45" as="geometry" />
        </mxCell>
        <mxCell id="a7p3JFXJAgLpCiOjsdGe-42" value="" style="edgeStyle=none;endArrow=none;dashed=1;startArrow=none;" edge="1" parent="1" source="a7p3JFXJAgLpCiOjsdGe-18" target="a7p3JFXJAgLpCiOjsdGe-41">
          <mxGeometry x="-128.92881944444412" y="283.9971450617285" width="100" height="100" as="geometry">
            <mxPoint x="-85" y="271" as="sourcePoint" />
            <mxPoint x="-85" y="410" as="targetPoint" />
          </mxGeometry>
        </mxCell>
        <mxCell id="a7p3JFXJAgLpCiOjsdGe-41" value="" style="fillColor=#CC4125;strokeColor=#660000" vertex="1" parent="1">
          <mxGeometry x="-90" y="300" width="10" height="45" as="geometry" />
        </mxCell>
        <mxCell id="a7p3JFXJAgLpCiOjsdGe-43" value="" style="endArrow=classic;html=1;rounded=0;exitX=0.85;exitY=0.085;exitDx=0;exitDy=0;exitPerimeter=0;entryX=0;entryY=0.25;entryDx=0;entryDy=0;dashed=1;" edge="1" parent="1">
          <mxGeometry width="50" height="50" relative="1" as="geometry">
            <mxPoint x="-543" y="310.49999999999994" as="sourcePoint" />
            <mxPoint x="-262.5" y="310.5" as="targetPoint" />
          </mxGeometry>
        </mxCell>
        <mxCell id="a7p3JFXJAgLpCiOjsdGe-44" value="call delete" style="text;html=1;align=center;verticalAlign=middle;resizable=0;points=[];autosize=1;strokeColor=none;fillColor=none;" vertex="1" parent="1">
          <mxGeometry x="-215.5" y="290" width="80" height="30" as="geometry" />
        </mxCell>
        <mxCell id="a7p3JFXJAgLpCiOjsdGe-45" style="edgeStyle=orthogonalEdgeStyle;rounded=0;orthogonalLoop=1;jettySize=auto;html=1;exitX=1;exitY=0.25;exitDx=0;exitDy=0;entryX=0;entryY=0.25;entryDx=0;entryDy=0;endArrow=classic;endFill=1;" edge="1" parent="1">
          <mxGeometry relative="1" as="geometry">
            <mxPoint x="-252.5" y="311" as="sourcePoint" />
            <mxPoint x="-90.5" y="311" as="targetPoint" />
          </mxGeometry>
        </mxCell>
        <mxCell id="a7p3JFXJAgLpCiOjsdGe-49" value="watch" style="text;html=1;align=center;verticalAlign=middle;resizable=0;points=[];autosize=1;strokeColor=none;fillColor=none;" vertex="1" parent="1">
          <mxGeometry x="-427.5" y="142.8" width="50" height="30" as="geometry" />
        </mxCell>
        <mxCell id="a7p3JFXJAgLpCiOjsdGe-51" value="watch" style="text;html=1;align=center;verticalAlign=middle;resizable=0;points=[];autosize=1;strokeColor=none;fillColor=none;" vertex="1" parent="1">
          <mxGeometry x="-427.5" y="290" width="50" height="30" as="geometry" />
        </mxCell>
        <mxCell id="a7p3JFXJAgLpCiOjsdGe-52" style="rounded=0;orthogonalLoop=1;jettySize=auto;html=1;exitX=0;exitY=0.75;exitDx=0;exitDy=0;dashed=1;endArrow=none;endFill=0;entryX=1;entryY=0.75;entryDx=0;entryDy=0;" edge="1" parent="1">
          <mxGeometry relative="1" as="geometry">
            <mxPoint x="-90" y="334.5" as="sourcePoint" />
            <mxPoint x="-252" y="334.5" as="targetPoint" />
          </mxGeometry>
        </mxCell>
      </root>
    </mxGraphModel>
  </diagram>
</mxfile>
